<svg width="305" height="33" viewBox="0 0 305 33" fill="none" xmlns="http://www.w3.org/2000/svg">
<path d="M11.5 9.7295C13.8817 9.7295 15.8125 8.61939 15.8125 7.25C15.8125 5.88061 13.8817 4.7705 11.5 4.7705C9.11827 4.7705 7.1875 5.88061 7.1875 7.25C7.1875 8.61939 9.11827 9.7295 11.5 9.7295Z" fill="#F72626"/>
<path d="M11.5 29C17.94 29 23 25.81 23 21.75V7.25C23 3.19 17.94 0 11.5 0C5.06 0 0 3.19 0 7.25V21.75C0 25.81 5.04562 29 11.5 29ZM11.5 2.9C16.5744 2.9 20.125 5.191 20.125 7.25C20.0848 7.69739 19.9421 8.12924 19.7081 8.5115C18.7306 9.9615 16.0712 11.4115 12.5206 11.5855H10.5225C6.91438 11.3535 4.21187 9.9905 3.2775 8.468C3.07565 8.12955 2.93908 7.75565 2.875 7.366V7.25C2.875 5.191 6.41125 2.9 11.5 2.9Z" fill="#F72626"/>
<path d="M42.2674 2.86616L55.4184 2.85199C56.845 3.20155 57.7662 3.99987 58.1819 5.24695C58.607 6.48458 58.8196 7.57105 58.8196 8.50636L54.1714 9.4275C54.1714 8.31269 53.1274 7.84031 51.0395 8.01037H47.3833L58.522 18.9223C59.3534 19.9804 59.462 21.7708 58.8479 24.2933C58.2338 25.8899 56.7175 26.7969 54.2989 27.0142L45.3568 27C44.3081 26.6599 43.4814 26.0033 42.8768 25.0302C42.2816 24.0476 41.8187 22.8383 41.488 21.4023L46.3346 19.7443C46.4669 21.0953 47.0148 21.7471 47.9785 21.6999L52.6975 21.7141C53.425 21.5535 53.3069 21.0339 52.3433 20.1552L41.984 10.0227L44.5348 8.01037H41.2754L42.2674 2.86616ZM67.8893 2.83782C67.2185 9.05432 67.1287 13.2207 67.62 15.337C68.1113 17.4438 68.8907 19.1113 69.9583 20.3395C71.0353 21.5676 73.4728 21.8652 77.2707 21.2323L77.2424 3.0929L82.3866 3.3905V26.6032L77.2424 27.1134V24.1799L76.3212 27.411L75.2159 27.6519C71.8903 27.7086 69.3772 27.2409 67.6767 26.2489C65.9856 25.2569 64.592 23.2446 63.4961 20.2119C62.4002 17.1698 61.9515 12.7861 62.1498 7.06088L62.4474 3.7873L67.8893 2.83782ZM86.142 2.86616L99.293 2.85199C100.72 3.20155 101.641 3.99987 102.056 5.24695C102.482 6.48458 102.694 7.57105 102.694 8.50636L98.0459 9.4275C98.0459 8.31269 97.002 7.84031 94.9141 8.01037H91.2578L102.397 18.9223C103.228 19.9804 103.337 21.7708 102.722 24.2933C102.108 25.8899 100.592 26.7969 98.1735 27.0142L89.2313 27C88.1827 26.6599 87.356 26.0033 86.7513 25.0302C86.1561 24.0476 85.6932 22.8383 85.3626 21.4023L90.2092 19.7443C90.3414 21.0953 90.8894 21.7471 91.853 21.6999L96.5721 21.7141C97.2996 21.5535 97.1815 21.0339 96.2178 20.1552L85.8585 10.0227L88.4094 8.01037H85.15L86.142 2.86616ZM105.741 2.86616H111.098V11.0856L118.878 11.043V2.93702L124.235 2.90867V11.2414L125.156 11.2556L125.581 16.1164H124.235V23.9106C123.876 24.9782 123.432 25.6868 122.903 26.0363C122.373 26.3859 121.542 26.6552 120.408 26.8441C119.284 27.0236 118.155 27.1134 117.021 27.1134L116.993 22.4226C118.08 22.3565 118.75 21.9078 119.005 21.0764V16.1306L112.515 16.1164L111.098 13.8631V26.5323L105.769 27.4393L105.741 2.86616ZM134.07 2.78113L134.055 26.9858H128.713L128.699 3.60307L134.07 2.78113ZM146.016 2.86616H163.078L161.661 8.20877L153.045 8.23711V10.8872H162.483L161.633 15.7054L152.917 15.6771C152.747 18.2374 152.903 19.9285 153.385 20.7504C153.876 21.5629 154.698 21.9739 155.851 21.9833H162.327L161.463 27.0142C156.257 27.137 153.234 26.9764 152.393 26.5323C151.562 26.0789 150.693 25.3419 149.786 24.3216C148.888 23.3013 148.321 21.7991 148.085 19.8151V15.6771L145.166 15.7054L145.888 10.8446L148.283 10.873V8.10957L145.166 8.12374L146.016 2.86616ZM169.781 2.11508L177.462 12.4885C179.541 9.50308 181.189 6.20588 182.408 2.5969L187.354 4.5809C185.786 8.69059 183.499 12.6586 180.495 16.4848L186.929 25.1152L182.465 28.6722L176.853 21.0055C175.729 22.3376 174.585 23.4997 173.423 24.4917C172.261 25.4837 170.684 26.5323 168.69 27.6377L165.048 23.7548C169.101 21.1 172.091 18.7712 174.019 16.7683L165.53 5.44535L169.781 2.11508ZM205.096 2.88033C206.891 3.211 207.817 4.40139 207.874 6.45152L207.846 15.4503C207.676 17.2926 206.698 18.1996 204.912 18.1712H197.628L195.928 15.1244L195.942 23.1596C195.649 24.9546 195.035 26.0694 194.099 26.504C193.174 26.9386 191.69 27.1417 189.65 27.1134L189.635 22.451C190.476 22.6588 190.859 21.4732 190.783 18.894V9.48419L193.547 7.93951L189.38 7.92534L190.429 2.88033H205.096ZM195.8 7.95368L195.814 12.5169L202.517 12.531V7.93951L195.8 7.95368ZM211.686 2.90867H226.963C228.04 3.04094 228.777 3.73534 229.174 4.99186L229.145 12.1059C228.796 13.7498 228.295 14.8504 227.643 15.4078C227.001 15.9652 225.848 16.6124 224.185 17.3493L225.574 19.5742C226.613 21.2086 228.087 22.1487 229.996 22.3943L229.585 27.8645L226.736 27.3259C224.875 26.948 222.915 25.0113 220.855 21.5157L219.735 19.39L216.958 20.6937L216.93 27.0283L211.97 27.0567V22.3518L210.028 18.1854L211.941 16.9808L211.97 9.5267L214.407 8.18042L210.581 8.19459L211.686 2.90867ZM216.958 8.19459V15.011L222.244 12.9137C223.538 12.4507 224.185 11.6902 224.185 10.6321V8.19459H216.958ZM232.121 2.90867H249.637V7.96785L239.533 7.98202V10.8021L247.526 10.8163L246.973 15.6771L239.533 15.6912V21.9408L249.935 20.7363L251.423 26.0789L232.972 28.403L232.405 23.0462L234.502 22.7061L234.488 15.7196H232.291L232.801 11.1706L234.53 11.1564L234.516 9.08739L237.365 8.05288L232.121 8.06705V2.90867ZM254.98 2.86616L268.131 2.85199C269.557 3.20155 270.478 3.99987 270.894 5.24695C271.319 6.48458 271.532 7.57105 271.532 8.50636L266.884 9.4275C266.884 8.31269 265.84 7.84031 263.752 8.01037H260.096L271.234 18.9223C272.066 19.9804 272.174 21.7708 271.56 24.2933C270.946 25.8899 269.43 26.7969 267.011 27.0142L258.069 27C257.02 26.6599 256.194 26.0033 255.589 25.0302C254.994 24.0476 254.531 22.8383 254.2 21.4023L259.047 19.7443C259.179 21.0953 259.727 21.7471 260.691 21.6999L265.41 21.7141C266.137 21.5535 266.019 21.0339 265.056 20.1552L254.696 10.0227L257.247 8.01037H253.988L254.98 2.86616ZM275.642 2.86616L288.793 2.85199C290.219 3.20155 291.14 3.99987 291.556 5.24695C291.981 6.48458 292.194 7.57105 292.194 8.50636L287.545 9.4275C287.545 8.31269 286.502 7.84031 284.414 8.01037H280.757L291.896 18.9223C292.727 19.9804 292.836 21.7708 292.222 24.2933C291.608 25.8899 290.092 26.7969 287.673 27.0142L278.731 27C277.682 26.6599 276.856 26.0033 276.251 25.0302C275.656 24.0476 275.193 22.8383 274.862 21.4023L279.709 19.7443C279.841 21.0953 280.389 21.7471 281.353 21.6999L286.072 21.7141C286.799 21.5535 286.681 21.0339 285.717 20.1552L275.358 10.0227L277.909 8.01037H274.65L275.642 2.86616ZM296.53 2.92285H302.454L300.852 20.5804L296.573 20.5237L296.53 2.92285ZM296.587 22.3234H300.852V26.9433L296.573 26.9291L296.587 22.3234Z" fill="white"/>
</svg>
